<!DOCTYPE svg PUBLIC "-//W3C//DTD SVG 1.1//EN" "http://www.w3.org/Graphics/SVG/1.1/DTD/svg11.dtd">
<svg xmlns="http://www.w3.org/2000/svg" viewBox="0 0 515.4 480.9">
  <path d="M436.1,210.9c4.3-3.6,7.9-6.6,11.8-9.9c-11.5-13.8-22.6-27.2-33.9-40.7c-4.2,3.5-7.7,6.4-11.8,9.9
          C413.8,184,424.9,197.4,436.1,210.9z M261.9,101.3c49.9,2,92.1,18.5,125,57.2c3.5-2.3,7.6-4.9,11.6-7.6
          C374.9,108.6,293,80.1,261,87.7C261.3,92.4,261.6,97,261.9,101.3z M354.6,344.8c-74.1-3.9-127.7-34.1-180.5-84.3
          c-1.2,5.9,1.8,17,9.2,36.6c-24.5-24.5-31.1-57.7-39.3-90.1c-14.7,37.3-33.4,72.1-49.3,108.5c-18.5,42.4-13.9,92.9-15.8,138.8
          c-0.1,1.1-0.1,2.2-0.3,4.9C21.7,413.7-6,330.9,1.1,260.5c5.6-55.2,49.6-185.9,128.2-152.7c0.6,0.3,1.2,0.5,1.9,0.7
          c0.1,0,0.3-0.1,0.1,0c5.5-40.8,15.8-95.2,62.5-108.5c-14.2,15.5-25.2,32-32.8,52.1c62-52.5,155.6-68,210.6,3.9
          c12.9-15.8,72.2,49.8,80.9,60.4c30.3,37.3,48.9,81.1,57.6,128.2c18.4,99.7-11.8,161.3-73.6,236.2c-0.6-0.3-1.2-0.6-1.8-0.8
          c0.7-45.7,1.5-91.4-2.3-137.6C406.4,344.5,380.6,346.2,354.6,344.8" />
</svg>
